<svg version="1.1" xmlns="http://www.w3.org/2000/svg" viewBox="0 0 1511 665" width="1511" height="665">
  <!-- svg-source:excalidraw -->
  
  <defs>
    <style>
      @font-face {
        font-family: "Virgil";
        src: url("https://excalidraw.com/Virgil.woff2");
      }
      @font-face {
        font-family: "Cascadia";
        src: url("https://excalidraw.com/Cascadia.woff2");
      }
    </style>
  </defs>
  <rect x="0" y="0" width="1511" height="665" fill="#ffffff"></rect><g stroke-linecap="round" transform="translate(50 226) rotate(0 187 57.5)"><path d="M0.5 0.85 C128.92 2.16, 258.2 1.63, 373.17 -0.34 M0.24 -0.33 C147.12 -0.47, 294.99 -0.3, 373.93 -0.35 M373.09 1.98 C371.09 45.6, 374.8 90.65, 375.96 113.14 M374.3 0.06 C375.13 30.43, 373.9 60.32, 373.85 114.58 M373.23 114 C273.48 116.29, 172.34 115.42, 1.09 115.61 M373.64 114.43 C258.58 115.74, 143.59 114.6, -0.03 115.17 M-1.32 114.32 C-0.8 75.42, -2.39 39.59, -0.26 -1.74 M-0.52 115.54 C-0.62 90.68, -0.85 65.99, -0.83 0.83" stroke="#000000" stroke-width="1" fill="none"></path></g><g transform="translate(71 272) rotate(0 173.5 13)"><text x="0" y="18" font-family="Virgil, Segoe UI Emoji" font-size="20px" fill="#000000" text-anchor="start" style="white-space: pre;" direction="ltr">Archive replica bucket 1 (Frankfurt)</text></g><g stroke-linecap="round" transform="translate(51 371.5) rotate(0 187 57.5)"><path d="M0.98 -0.73 C128.27 -0.51, 256.73 1.06, 373.93 1.13 M-0.32 -0.31 C104.39 0.21, 208.05 1.38, 373.65 0.06 M372.57 -0.64 C375.61 44.32, 373.57 87.68, 373.25 115.56 M373.01 -0.12 C373.57 31.79, 373.34 62.82, 374.58 114.44 M372.94 115.21 C291.5 112.18, 209.24 113.5, -0.3 114.43 M373.41 114.93 C227.39 114.81, 79.93 114.15, 0.35 114.52 M-0.38 113.9 C-1.54 79.11, -2.03 47.47, 1.7 1.25 M-0.1 115.15 C1.03 88.12, 0.03 60.5, -0.37 -0.74" stroke="#000000" stroke-width="1" fill="none"></path></g><g transform="translate(85 417.5) rotate(0 162.5 13)"><text x="0" y="18" font-family="Virgil, Segoe UI Emoji" font-size="20px" fill="#000000" text-anchor="start" style="white-space: pre;" direction="ltr">Archive replica bucket 2 (Sydney)</text></g><g stroke-linecap="round" transform="translate(51 515.5) rotate(0 185.5 57.5)"><path d="M0.21 -0.29 C119.36 1.64, 240.71 1.67, 370.43 1.14 M-0.07 0.38 C142.73 2.11, 284.67 2.55, 370.51 -0.02 M369.9 -0.92 C369.86 39.35, 372.44 83.2, 372.25 113.75 M371.15 0.14 C372.17 24.81, 371.87 50.96, 370.26 114.6 M370.5 114.86 C249.88 114.74, 128.06 114.61, -0.77 115.63 M370.49 115.35 C296.8 113.66, 221.95 113.77, -0.11 114.55 M-1.83 114.71 C-0.16 72.19, -0.3 29.98, 0.98 -1.43 M-0.73 115.76 C-0.4 74.31, 1.07 35.32, -0.44 -0.09" stroke="#000000" stroke-width="1" fill="none"></path></g><g transform="translate(76 561.5) rotate(0 168 13)"><text x="0" y="18" font-family="Virgil, Segoe UI Emoji" font-size="20px" fill="#000000" text-anchor="start" style="white-space: pre;" direction="ltr">Archive replica bucket 3 (Canada)</text></g><g stroke-linecap="round" transform="translate(10 10) rotate(0 520.4999999999999 322.5)"><path d="M-0.03 -0.29 C339.53 -4.54, 679.37 -3.38, 1041.04 0.48 M-0.02 -0.06 C392.41 -3.29, 785.15 -3.36, 1041.13 0.21 M1041.38 -0.74 C1038.69 255.94, 1037.93 511.13, 1040.81 644.39 M1041.16 -0.28 C1039.14 202.72, 1038.75 405.78, 1041.3 645.35 M1041.47 644.34 C687.06 645.94, 335.03 646.91, 0.38 645.48 M1040.62 645.05 C675.14 643.08, 310.06 643.24, -0.03 644.8 M0.11 644.49 C0.38 503.73, 1.2 361.25, 0.76 -0.34 M-0.02 644.63 C0.22 403.42, 0.96 162.2, -0.02 0.09" stroke="#000000" stroke-width="1" fill="none"></path></g><g transform="translate(142 112) rotate(0 71.5 13)"><text x="0" y="18" font-family="Virgil, Segoe UI Emoji" font-size="20px" fill="#000000" text-anchor="start" style="white-space: pre;" direction="ltr">Archive Module</text></g><g stroke-linecap="round" transform="translate(643 302) rotate(0 139 140)"><path d="M138.5 1.46 C187.06 50.59, 234.06 95.61, 277.81 141.88 M139.49 0.97 C175.27 33.28, 209.24 69.85, 277.59 140.03 M279.93 140.97 C227.68 192.74, 176.39 240.13, 140.27 279.05 M278.03 140.62 C227.36 190.99, 176.37 244.03, 139.08 279.77 M141.91 279.4 C108.99 249.84, 77.73 217.62, -1.57 141.88 M140.12 280.33 C93.77 236.43, 48.77 191.94, 0.17 141.02 M1.8 139.31 C51.61 86.74, 105.89 33.47, 139.91 1.44 M0.34 141.12 C53.71 85.85, 110.69 29.86, 140.28 0.03" stroke="#000000" stroke-width="1" fill="none"></path></g><g transform="translate(688 431) rotate(0 95 13)"><text x="0" y="18" font-family="Virgil, Segoe UI Emoji" font-size="20px" fill="#000000" text-anchor="start" style="white-space: pre;" direction="ltr">Replication function</text></g><g transform="translate(455 43) rotate(0 134 65)"><text x="0" y="18" font-family="Virgil, Segoe UI Emoji" font-size="20px" fill="#5c940d" text-anchor="start" style="white-space: pre;" direction="ltr">Inputs:</text><text x="0" y="44" font-family="Virgil, Segoe UI Emoji" font-size="20px" fill="#5c940d" text-anchor="start" style="white-space: pre;" direction="ltr">Replication Sources</text><text x="0" y="70" font-family="Virgil, Segoe UI Emoji" font-size="20px" fill="#5c940d" text-anchor="start" style="white-space: pre;" direction="ltr">(bucket, prefix, filter tags,</text><text x="0" y="96" font-family="Virgil, Segoe UI Emoji" font-size="20px" fill="#5c940d" text-anchor="start" style="white-space: pre;" direction="ltr">tags to add on completion,</text><text x="0" y="122" font-family="Virgil, Segoe UI Emoji" font-size="20px" fill="#5c940d" text-anchor="start" style="white-space: pre;" direction="ltr">storage class)</text></g><g stroke-linecap="round" transform="translate(445 32) rotate(0 141.5 80.5)"><path d="M0.57 -1.14 C58.23 0.2, 117.83 -1.88, 281.52 0.85 M-0.41 0.57 C98.65 -2.61, 199 -1.61, 282.61 -0.49 M282.62 0.52 C284.04 39.78, 284.54 75.73, 281.53 161.75 M282.96 0.79 C284.53 36.69, 284.42 72.79, 283.93 160.98 M283.71 160.91 C204.24 162.69, 125.16 161.06, -0.2 160.79 M283.5 160.99 C171.08 159.28, 58.85 158.74, 0.69 160.69 M1.98 160.27 C1.12 124.8, 0.62 91.37, -1.24 -0.85 M0.38 161.7 C-0.79 108.66, -0.64 56.68, -0.12 0.34" stroke="#5c940d" stroke-width="1" fill="none"></path></g><g transform="translate(754.5 43.5) rotate(0 133 65)"><text x="0" y="18" font-family="Virgil, Segoe UI Emoji" font-size="20px" fill="#a61e4d" text-anchor="start" style="white-space: pre;" direction="ltr">Outputs:</text><text x="0" y="44" font-family="Virgil, Segoe UI Emoji" font-size="20px" fill="#a61e4d" text-anchor="start" style="white-space: pre;" direction="ltr">Replication Function</text><text x="0" y="70" font-family="Virgil, Segoe UI Emoji" font-size="20px" fill="#a61e4d" text-anchor="start" style="white-space: pre;" direction="ltr">permissions needed,</text><text x="0" y="96" font-family="Virgil, Segoe UI Emoji" font-size="20px" fill="#a61e4d" text-anchor="start" style="white-space: pre;" direction="ltr">Replication function lambda</text><text x="0" y="122" font-family="Virgil, Segoe UI Emoji" font-size="20px" fill="#a61e4d" text-anchor="start" style="white-space: pre;" direction="ltr">notifications needed</text></g><g stroke-linecap="round" transform="translate(744.5 32.5) rotate(0 141.5 80.5)"><path d="M-1.18 0.62 C60.69 -0.39, 122.22 0.2, 281.81 0.4 M-0.2 -0.36 C104.71 -0.32, 209.35 -0.87, 282.62 -0.13 M281.08 -1.67 C284.29 61.01, 286.01 120.07, 283.89 161.95 M282.39 0.62 C283.28 63.8, 283.61 126.59, 282.97 160.52 M281.92 161.81 C213.28 160.91, 142.78 159.87, -0.12 160.3 M282.83 160.59 C197.59 161.05, 112.46 161.87, 0.23 160.7 M-1.68 162.98 C0.44 119.7, 0.76 77.49, 0.57 1.13 M-0.11 161.09 C1.5 114.69, 2.41 68.17, 0.6 -0.54" stroke="#a61e4d" stroke-width="1" fill="none"></path></g><g stroke-linecap="round"><g transform="translate(645 441) rotate(0 -110.006315260441 -75.08404212668535)"><path d="M0.17 -0.25 C-36.36 -25.3, -182.85 -124.95, -219.5 -149.92 M-1.2 -1.43 C-37.82 -26.3, -183.67 -123.78, -220.18 -148.34" stroke="#1864ab" stroke-width="1" fill="none"></path></g><g transform="translate(645 441) rotate(0 -110.006315260441 -75.08404212668535)"><path d="M-191.47 -140.33 C-198.94 -142.59, -207.17 -145.91, -218.53 -147.57 M-191.37 -142.14 C-198.58 -144.4, -207.34 -146.12, -220.27 -148.47" stroke="#1864ab" stroke-width="1" fill="none"></path></g><g transform="translate(645 441) rotate(0 -110.006315260441 -75.08404212668535)"><path d="M-202.89 -123.28 C-207.28 -130.24, -212.38 -138.24, -218.53 -147.57 M-202.79 -125.09 C-206.84 -132.13, -212.33 -138.72, -220.27 -148.47" stroke="#1864ab" stroke-width="1" fill="none"></path></g></g><g stroke-linecap="round"><g transform="translate(641 445) rotate(0 -109.81745497107971 -4.77812175824306)"><path d="M0.64 -0.56 C-35.82 -2.11, -182.59 -8.26, -219.21 -9.82 M-0.49 1.76 C-37.08 -0.05, -183.71 -9.09, -220.27 -11.32" stroke="#1864ab" stroke-width="1" fill="none"></path></g><g transform="translate(641 445) rotate(0 -109.81745497107971 -4.77812175824306)"><path d="M-192.44 -20.19 C-197.01 -17.61, -204.55 -14.42, -220.34 -13.05 M-192.5 -18.94 C-200.38 -16.33, -208.17 -14.88, -219.39 -11.77" stroke="#1864ab" stroke-width="1" fill="none"></path></g><g transform="translate(641 445) rotate(0 -109.81745497107971 -4.77812175824306)"><path d="M-193.69 0.29 C-197.86 -2.43, -205.07 -4.54, -220.34 -13.05 M-193.75 1.55 C-201.12 -2.07, -208.53 -6.84, -219.39 -11.77" stroke="#1864ab" stroke-width="1" fill="none"></path></g></g><g stroke-linecap="round"><g transform="translate(648 448) rotate(0 -114.859144073734 67.73896044575145)"><path d="M-0.25 -0.91 C-38.61 21.59, -192.08 112.57, -230.39 135.25 M1.82 1.22 C-36.71 23.84, -192.75 113.92, -231.54 136.39" stroke="#1864ab" stroke-width="1" fill="none"></path></g><g transform="translate(648 448) rotate(0 -114.859144073734 67.73896044575145)"><path d="M-213.79 112.75 C-218.86 119.64, -224.35 126.53, -230.9 137.04 M-213.17 113.01 C-217.91 120.8, -223.74 126.88, -231.6 136.44" stroke="#1864ab" stroke-width="1" fill="none"></path></g><g transform="translate(648 448) rotate(0 -114.859144073734 67.73896044575145)"><path d="M-203.52 130.52 C-211.49 132.42, -219.86 134.34, -230.9 137.04 M-202.89 130.78 C-210.62 133.36, -219.45 134.25, -231.6 136.44" stroke="#1864ab" stroke-width="1" fill="none"></path></g></g><g stroke-linecap="round" transform="translate(1127 396.5) rotate(0 187 57.5)"><path d="M-0.11 0.69 C134.29 2.83, 266.97 1.5, 372.86 0.57 M-0.16 -0.48 C109.86 -1.03, 220.19 -0.48, 374.6 0.43 M374.21 -0.07 C374.92 31.35, 373.81 58.09, 375.89 116.62 M374.96 0.19 C374.82 37.9, 374.26 77.17, 373.37 114.34 M374.28 114.03 C270.05 117.08, 168.49 116.65, 0.67 115.54 M373.86 115.14 C284.3 116.15, 195.06 115.47, 0.35 114.64 M-1.59 116.38 C1.54 75.57, 1.77 34.84, -1.73 -0.95 M-0.99 115.89 C1.66 87.87, 0.12 59.5, -0.39 0.67" stroke="#000000" stroke-width="1" fill="none"></path></g><g stroke-linecap="round" transform="translate(1108 377.5) rotate(0 187 57.5)"><path d="M1.78 0.6 L372.12 0.18 L375.64 114.44 L-0.3 115.47" stroke="none" stroke-width="0" fill="#ffffff"></path><path d="M0.18 -0.04 C75.33 0.2, 152.55 0.75, 373.21 0.74 M0.37 0.02 C109.84 -1.26, 218.35 -0.88, 373.55 0.36 M375.85 -0.49 C371.49 30.38, 372.42 57.9, 374.37 116.62 M374.27 0.08 C373.98 40.72, 372.52 81.98, 373.08 115.35 M373.6 115.08 C286.74 113.84, 201.72 114.36, 0.13 115.77 M374.41 115.35 C283.36 116.88, 193.25 117.19, -0.19 114.78 M-1.8 114.49 C-2.04 77.9, -0.58 43.41, -1.29 0.97 M0.77 114.24 C-1.97 71.96, -0.61 27.72, 0.04 -0.46" stroke="#000000" stroke-width="1" fill="none"></path></g><g transform="translate(1212 425.5) rotate(0 81 13)"><text x="0" y="18" font-family="Virgil, Segoe UI Emoji" font-size="20px" fill="#000000" text-anchor="start" style="white-space: pre;" direction="ltr">source bucket(s)</text></g><g stroke-linecap="round"><g transform="translate(1106 442) rotate(0 -93.32892086398795 2.184687706516115)"><path d="M-0.6 0.31 C-31.89 1.23, -156.05 4.47, -187 4.94 M1.29 -0.57 C-30.22 0.08, -156.61 2.55, -187.94 3.32" stroke="#1864ab" stroke-width="1" fill="none"></path></g><g transform="translate(1106 442) rotate(0 -93.32892086398795 2.184687706516115)"><path d="M-159.47 -7.55 C-168.52 -2.64, -181.6 1.24, -188.15 3.32 M-160.2 -7.15 C-168.27 -4.75, -177.46 -2.18, -188.42 2.73" stroke="#1864ab" stroke-width="1" fill="none"></path></g><g transform="translate(1106 442) rotate(0 -93.32892086398795 2.184687706516115)"><path d="M-159.02 12.97 C-168.14 10.49, -181.37 6.99, -188.15 3.32 M-159.76 13.37 C-167.84 9.74, -177.17 6.28, -188.42 2.73" stroke="#1864ab" stroke-width="1" fill="none"></path></g></g><g transform="translate(929 380) rotate(0 56.5 13)"><text x="0" y="18" font-family="Virgil, Segoe UI Emoji" font-size="20px" fill="#1864ab" text-anchor="start" style="white-space: pre;" direction="ltr">Notification</text></g><g transform="translate(499 314) rotate(0 122 13)"><text x="0" y="18" font-family="Virgil, Segoe UI Emoji" font-size="20px" fill="#1864ab" text-anchor="start" style="white-space: pre;" direction="ltr">Archive in specified class</text></g></svg>